<svg width="79" height="82" viewBox="0 0 79 82" fill="none" xmlns="http://www.w3.org/2000/svg">
<path d="M44.7479 22.3565C43.1762 22.5729 41.1352 23.2797 39.427 24.2076C38.7231 24.5923 38.6794 24.6067 38.3629 24.6115C38.0518 24.6115 38.0081 24.5971 37.5006 24.3086C35.4159 23.1162 33.0802 22.77 30.4225 23.246C29.7404 23.371 29.4511 23.4527 28.8945 23.698C28.256 23.9816 27.7048 24.3374 27.099 24.8519C25.6583 26.0779 24.7742 27.53 24.4741 29.1743C24.414 29.4917 24.3322 29.9052 24.2831 30.0927C23.8192 32.0351 24.6214 35.2662 26.2422 37.9539C27.0608 39.3097 27.6338 40.4877 27.994 41.5599C28.1468 42.0119 28.1523 42.0359 28.1632 43.411C28.1741 45.0073 28.2778 45.94 28.5943 47.3007C29.0582 49.3201 29.7567 51.1135 30.7991 52.955C31.5413 54.2724 31.9396 54.7725 32.6764 55.311C33.2166 55.71 33.5277 55.8398 33.9261 55.8398C34.2099 55.8398 34.2644 55.8254 34.4609 55.6668C34.7229 55.4552 34.9084 55.1186 35.0339 54.6186C35.1376 54.2099 35.1322 53.6522 35.0066 52.2098C34.8593 50.4404 35.0012 48.3681 35.3668 46.8969C35.8798 44.863 37.0149 43.1081 38.15 42.6033C39.689 41.9157 41.1188 42.1465 42.052 43.2331C42.9088 44.2332 43.4763 45.9208 43.6837 48.0941C43.7328 48.5701 43.7328 49.0028 43.6837 49.7528C43.5309 52.2915 43.9839 54.258 44.9116 55.0946C45.1572 55.3206 45.2281 55.3542 45.5774 55.4264C46.0686 55.5225 46.3523 55.5225 46.7671 55.4264C48.4589 55.0417 49.6213 52.8733 50.1724 49.0605C50.4562 47.1421 50.5872 44.5697 50.5272 42.2234L50.489 40.6945L50.9856 39.7953C53.2831 35.6123 53.938 31.7034 52.9338 28.1935C52.4318 26.4289 51.4604 24.8182 50.2598 23.746C49.4248 23.0056 48.4534 22.5488 47.2692 22.3517C46.7289 22.2603 45.4246 22.2652 44.7479 22.3565Z" fill="white"/>
<path d="M4.57659 35.444C4.17192 35.6107 3.95032 35.972 3.95032 36.4444C3.95032 37.0094 4.22973 38.4452 4.39353 38.7601C4.65368 39.2418 7.81397 43.7807 8.07411 44.0493C8.7293 44.7163 10.8394 46.0131 13.1518 47.1802L14.4718 47.8472L13.6335 46.8838C12.4581 45.5314 10.136 42.5487 9.10506 41.0574C8.50769 40.2052 8.13192 39.5382 7.91032 38.9732C7.13951 37.0002 6.35908 35.8423 5.5401 35.4903C5.08725 35.2865 4.962 35.2772 4.57659 35.444Z" fill="white"/>
<path d="M73.4672 35.4903C72.6482 35.8423 71.9545 36.8242 71.1933 38.6953C70.9717 39.2511 70.6152 39.9829 70.4033 40.3163C69.6325 41.539 67.0792 44.8645 65.4316 46.7912L64.5355 47.8472L65.7592 47.2173C67.9271 46.115 69.6132 45.1146 70.5671 44.355C70.8946 44.0956 71.4728 43.3546 72.5422 41.8077C74.739 38.6397 74.7294 38.6582 74.9028 37.6208C75.0955 36.5185 75.0955 36.2128 74.9125 35.8793C74.7872 35.6292 74.2573 35.3143 73.9779 35.3143C73.9104 35.3143 73.6792 35.3976 73.4672 35.4903Z" fill="white"/>
<path d="M9.4038 36.2497C9.10511 36.4813 9.08584 36.7036 9.33635 37.528C9.58686 38.3339 9.73139 39.3992 9.73139 40.4088V41.224L10.5311 42.3726C12.1401 44.6884 14.1346 46.9485 15.339 47.8285C15.7726 48.1342 16.4181 48.5325 16.7842 48.7085L17.4491 49.0327L16.8324 48.338C15.5413 46.8744 14.1539 44.7995 13.6721 43.6046C13.5276 43.2526 13.2578 42.28 13.0651 41.4648C12.6508 39.6956 11.9956 37.491 11.7837 37.1668C11.1477 36.1941 10.0397 35.768 9.4038 36.2497Z" fill="white"/>
<path d="M68.2354 36.2127C68.062 36.2961 67.7344 36.5554 67.5031 36.8056C67.1177 37.2131 67.0503 37.3706 66.6456 38.7601C66.4047 39.5937 66.0482 40.9369 65.8652 41.752C65.5858 42.9284 65.422 43.4286 65.0366 44.1882C64.3525 45.5591 63.3408 46.9856 61.9534 48.5696L61.5198 49.0605L62.2617 48.6808C63.7069 47.9305 64.5741 47.1894 66.1446 45.3646C67.1948 44.1326 68.5244 42.3819 68.9291 41.6779C69.2374 41.1407 69.2567 41.048 69.2663 40.2421C69.276 39.2139 69.4109 38.2691 69.671 37.454C69.9119 36.6759 69.9023 36.4813 69.6036 36.2498C69.2856 36.0089 68.6882 35.9997 68.2354 36.2127Z" fill="white"/>
<path d="M0.674453 36.9353C0.125255 37.1762 0 37.3336 0 37.8061C0 38.3618 0.183066 38.7138 1.73431 41.2426C2.43766 42.3913 3.3819 44.0308 3.83475 44.8923C4.65372 46.4577 4.66336 46.467 5.77139 47.5415C6.38803 48.1343 7.46715 49.1348 8.18015 49.7646C9.42307 50.8762 10.454 51.9692 11.0514 52.8214C11.2152 53.053 11.7644 53.9423 12.2847 54.813C12.7953 55.6745 13.4891 56.7582 13.8166 57.2214C14.414 58.0643 15.7533 59.426 17.478 60.9266C19.4531 62.6403 20.8888 64.6133 21.5343 66.4844C21.9679 67.7349 21.8523 69.2633 21.0526 72.4405C20.3396 75.2658 18.8365 79.9436 18.162 81.4072C18.0272 81.6943 17.9212 81.9444 17.9212 81.9629C17.9212 81.9815 20.831 82 24.3766 82H30.8321V78.5449C30.8321 74.8397 30.9767 69.7913 31.1212 68.1703C31.1886 67.4292 31.3139 66.8735 31.6029 66.0213C32.1714 64.3447 32.3063 63.4276 32.2485 61.8066C32.181 59.8891 31.7282 58.4163 30.678 56.7027C29.6759 55.0538 27.7489 52.9974 26.005 51.7099C24.3285 50.4686 23.365 49.3478 21.2838 46.2447C20.6961 45.3554 19.9927 44.3643 19.7326 44.0493C18.4126 42.4468 17.054 41.8725 16.2736 42.5951C15.6569 43.1694 15.6569 43.9938 16.2832 45.3184C16.7361 46.2725 18.162 48.8476 18.981 50.1815C19.7037 51.3394 20.0891 52.1823 20.3299 53.0993C20.4359 53.5347 20.5515 53.9701 20.5804 54.0719C20.6093 54.1738 20.3492 53.7477 20.012 53.1271C18.6438 50.6261 17.5743 49.5794 15.6088 48.8383C13.2578 47.9491 11.2826 46.9672 9.58686 45.8649C8.09343 44.8923 7.55387 44.318 6.42657 42.4932C5.89664 41.6224 5.10657 40.4182 4.68263 39.8069C3.06394 37.5004 1.68613 36.5092 0.674453 36.9353Z" fill="white"/>
<path d="M77.379 36.9075C76.1843 37.2317 74.9124 38.7138 72.6 42.4283C71.7329 43.8363 71.4342 44.2346 70.8561 44.7533C69.5168 45.9853 66.607 47.5971 63.7261 48.7086C62.1749 49.3015 61.7895 49.5238 60.9898 50.3112C60.2286 51.0522 59.5734 51.9785 58.8894 53.2846C58.3402 54.3035 58.3209 54.2294 58.7352 52.8492C59.0242 51.9044 59.1399 51.6636 60.5273 49.3015C62.464 46.0038 63.2059 44.4569 63.2059 43.7159C63.2059 42.9563 62.5796 42.2616 61.9051 42.2616C61.7413 42.2616 61.3367 42.3913 61.0091 42.5487C60.1612 42.947 59.2748 43.9104 58.0415 45.763C55.8929 48.9773 54.7463 50.3853 53.5901 51.2282C48.7148 54.8037 46.3542 58.8887 46.7299 63.0849C46.8263 64.076 47.0286 64.9653 47.4911 66.3084C47.6934 66.9013 47.8091 67.4663 47.8765 68.3C48.021 69.921 48.1752 75.3769 48.1752 78.9617V82H54.6403C59.7758 82 61.0958 81.9722 61.0572 81.8796C59.5831 78.656 57.6753 72.1627 57.2707 69.0317C57.1069 67.7905 57.1069 67.772 57.3092 66.9939C57.8488 64.9838 59.2459 62.9552 61.4426 61.0007C64.4584 58.3329 65.0172 57.666 66.819 54.6277C68.2932 52.1452 68.9676 51.3764 71.8678 48.8013C73.9297 46.9765 74.3151 46.5226 75.1918 44.8182C75.5965 44.0493 76.4444 42.5673 77.0899 41.5205C78.699 38.8991 78.9302 38.4545 78.988 37.9079C79.0362 37.4077 78.9495 37.241 78.5352 37.0372C78.1594 36.852 77.7451 36.8056 77.379 36.9075Z" fill="white"/>
<path d="M5.26667 15.9556L6.44911 19.8865H10.2756L7.1799 22.3159L8.36234 26.2469L5.26667 23.8174L2.171 26.2469L3.35344 22.3159L0.257769 19.8865H4.08423L5.26667 15.9556Z" fill="white"/>
<path d="M73.7333 15.9556L74.9158 19.8865H78.7422L75.6466 22.3159L76.829 26.2469L73.7333 23.8174L70.6377 26.2469L71.8201 22.3159L68.7244 19.8865H72.5509L73.7333 15.9556Z" fill="white"/>
<path d="M39.4999 0.311035L40.6824 4.24196H44.5088L41.4132 6.67141L42.5956 10.6023L39.4999 8.17289L36.4043 10.6023L37.5867 6.67141L34.491 4.24196H38.3175L39.4999 0.311035Z" fill="white"/>
<path d="M19.7499 4.57764L20.9324 8.50856H24.7588L21.6632 10.938L22.8456 14.8689L19.7499 12.4395L16.6543 14.8689L17.8367 10.938L14.741 8.50856H18.5675L19.7499 4.57764Z" fill="white"/>
<path d="M57.9333 4.57764L59.1157 8.50856H62.9422L59.8465 10.938L61.029 14.8689L57.9333 12.4395L54.8376 14.8689L56.0201 10.938L52.9244 8.50856H56.7509L57.9333 4.57764Z" fill="white"/>
</svg>
