<svg width="26" height="26" viewBox="0 0 26 26" fill="none" xmlns="http://www.w3.org/2000/svg">
<g clip-path="url(#clip0_10_273)">
<path d="M23.053 11.7845C23.4227 11.3066 23.7162 10.9231 23.933 10.6337C25.4942 8.55806 26.1709 7.23212 25.9635 6.65404L25.8821 6.51865C25.8281 6.43733 25.6879 6.36265 25.4625 6.29505C25.2368 6.22751 24.9481 6.21671 24.5963 6.2613L20.6976 6.2888C20.6074 6.27982 20.5171 6.28192 20.4268 6.29505C20.3366 6.30878 20.278 6.32255 20.2508 6.33569C20.2235 6.34946 20.2011 6.3605 20.1832 6.36949L20.1291 6.41012C20.084 6.43704 20.0344 6.48456 19.9803 6.55245C19.9262 6.62029 19.8807 6.69892 19.8449 6.78947C19.4207 7.88137 18.938 8.89678 18.3964 9.83536C18.0625 10.3949 17.7555 10.8804 17.4761 11.2904C17.1963 11.7014 16.9616 12.0037 16.7721 12.1973C16.5826 12.3913 16.411 12.5473 16.2577 12.6642C16.1041 12.782 15.9869 12.8313 15.9059 12.8134C15.8246 12.7955 15.7478 12.7776 15.6757 12.759C15.5493 12.678 15.4477 12.5677 15.3712 12.4275C15.2944 12.288 15.2427 12.1119 15.2154 11.8996C15.1885 11.6877 15.1724 11.5048 15.1682 11.3511C15.1634 11.1978 15.1658 10.9814 15.1751 10.7013C15.1841 10.4215 15.1885 10.2323 15.1885 10.1328C15.1885 9.79023 15.1954 9.41782 15.2089 9.0161C15.2224 8.61467 15.2337 8.29632 15.2427 8.06164C15.2517 7.8273 15.2561 7.57889 15.2561 7.31706C15.2561 7.0558 15.2403 6.85013 15.2085 6.70102C15.1768 6.55245 15.1293 6.40807 15.0665 6.2679C15.0032 6.12831 14.9108 6.01978 14.7888 5.9433C14.6669 5.86647 14.5159 5.80581 14.3354 5.76034C13.8568 5.65181 13.2477 5.59384 12.5079 5.58432C10.8292 5.56698 9.75076 5.67516 9.27251 5.9095C9.08301 6.00904 8.91143 6.14413 8.75811 6.31571C8.59552 6.5145 8.5731 6.62297 8.69057 6.64031C9.23217 6.72163 9.61543 6.91592 9.84107 7.2226L9.92239 7.3849C9.98545 7.50265 10.0485 7.71013 10.1119 8.00782C10.175 8.30555 10.2156 8.63494 10.2339 8.99602C10.279 9.65479 10.279 10.2186 10.2339 10.6882C10.1887 11.1577 10.146 11.523 10.1054 11.7843C10.0647 12.0461 10.0037 12.258 9.92269 12.4203C9.84136 12.5832 9.7873 12.6825 9.76009 12.7186C9.73289 12.7545 9.71047 12.7772 9.69254 12.7862C9.57508 12.831 9.45342 12.8537 9.32702 12.8537C9.20057 12.8537 9.04721 12.7904 8.86669 12.6639C8.68612 12.5381 8.49872 12.3641 8.30501 12.1429C8.11072 11.9221 7.89221 11.6127 7.64829 11.2154C7.40467 10.8188 7.15177 10.3492 6.89023 9.80786L6.67381 9.41508C6.53843 9.16282 6.35337 8.79485 6.11873 8.3121C5.8841 7.82935 5.67633 7.36248 5.49611 6.91084C5.42377 6.72163 5.31554 6.57726 5.17121 6.47772L5.10367 6.43708C5.05854 6.40119 4.9862 6.36265 4.88696 6.32226C4.78742 6.28162 4.68402 6.25232 4.5755 6.2341L0.866346 6.26101C0.487338 6.26101 0.230286 6.34712 0.0948985 6.51865L0.0407824 6.59968C0.0134313 6.6451 0 6.71743 0 6.81638C0 6.91592 0.0272046 7.03759 0.0813207 7.18167C0.622921 8.45442 1.2118 9.68175 1.84786 10.8636C2.48426 12.0461 3.03695 12.9984 3.50622 13.7203C3.97548 14.4428 4.45374 15.1236 4.94127 15.7645C5.4288 16.4053 5.7513 16.8157 5.90911 16.996C6.06691 17.1768 6.19097 17.3123 6.28128 17.4022L6.61965 17.7274C6.83606 17.9438 7.15441 18.2032 7.57411 18.5058C7.99375 18.8082 8.45828 19.106 8.96852 19.3989C9.47818 19.6925 10.0718 19.9312 10.7485 20.1166C11.4252 20.3019 12.084 20.3763 12.7249 20.3398H14.2816C14.5976 20.3129 14.8366 20.214 14.999 20.0421L15.0531 19.9746C15.0889 19.9207 15.123 19.8371 15.1547 19.7243C15.1861 19.6117 15.2023 19.4873 15.2023 19.3522C15.1929 18.9643 15.2226 18.6139 15.2901 18.3031C15.3577 17.9916 15.4345 17.7573 15.5203 17.5989C15.6061 17.4413 15.7029 17.308 15.8114 17.1995C15.9197 17.091 15.9961 17.0261 16.0416 17.0034C16.0867 16.9813 16.1229 16.9654 16.1498 16.9559C16.3662 16.8838 16.6212 16.9538 16.9147 17.1657C17.2079 17.3783 17.4833 17.6395 17.7406 17.9509C17.9976 18.2624 18.3067 18.6118 18.6678 19.0001C19.0286 19.388 19.3445 19.6768 19.6153 19.8663L19.8862 20.0292C20.0666 20.1371 20.301 20.2363 20.5901 20.3269C20.8788 20.4169 21.1317 20.4396 21.3481 20.3945L24.8136 20.3401C25.1565 20.3401 25.4228 20.2839 25.6124 20.1709C25.8018 20.0588 25.9146 19.9339 25.9507 19.7988C25.9866 19.6634 25.989 19.5107 25.9576 19.3387C25.926 19.1675 25.8943 19.0479 25.8629 18.9803C25.8313 18.9128 25.8019 18.856 25.7747 18.8112C25.3234 17.999 24.4616 17.0015 23.1891 15.8194L23.1619 15.7925L23.1485 15.7788L23.135 15.7656H23.1214C22.5437 15.215 22.1784 14.8449 22.025 14.6551C21.7453 14.2947 21.6819 13.9291 21.8356 13.5591C21.9431 13.2785 22.3491 12.6872 23.053 11.7845Z" fill="white"/>
</g>
<defs>
<clipPath id="clip0_10_273">
<rect width="26" height="26" fill="white"/>
</clipPath>
</defs>
</svg>
