<svg width="15" height="15" viewBox="0 0 15 15" fill="none" xmlns="http://www.w3.org/2000/svg">
<g clip-path="url(#clip0_6_193)">
<path d="M7.62483 0C3.55808 0 0.24983 3.30825 0.24983 7.375C0.24983 8.6615 0.58633 9.9255 1.22383 11.0375L0.0125797 14.671C-0.0164203 14.7582 0.00457966 14.854 0.0673297 14.921C0.11533 14.9722 0.18183 15 0.24983 15C0.27108 15 0.29233 14.9972 0.31333 14.9917L4.28008 13.948C5.31058 14.473 6.46483 14.75 7.62483 14.75C11.6916 14.75 14.9998 11.4417 14.9998 7.375C14.9998 3.30825 11.6916 0 7.62483 0ZM12.2268 10.7238L11.7873 11.1635C11.2323 11.7185 10.6131 12 9.94733 12C9.04983 12 8.08208 11.4875 7.07158 10.4768L4.52308 7.9285C3.72608 7.1315 3.23633 6.35725 3.06733 5.627C2.86233 4.74025 3.12108 3.928 3.83658 3.21275L4.27633 2.773C4.55908 2.49025 5.01633 2.42075 5.37058 2.60825C6.03608 2.9605 6.72558 4.1145 6.80208 4.245C6.94008 4.48675 6.98233 4.73675 6.92283 4.951C6.87733 5.11475 6.77483 5.24825 6.62583 5.339C6.42383 5.508 6.18708 5.7185 6.14533 5.772C5.89133 6.14675 5.92033 6.4345 6.24758 6.762L8.23808 8.7525C8.56808 9.08275 8.85083 9.11 9.23158 8.852C9.28183 8.81275 9.49208 8.576 9.66108 8.374C9.78733 8.16525 9.99408 8.051 10.2456 8.051C10.4103 8.051 10.5856 8.101 10.7523 8.196C10.8853 8.27425 12.0396 8.96375 12.3916 9.629C12.5841 9.993 12.5181 10.4325 12.2268 10.7238Z" fill="#163F7A"/>
</g>
<defs>
<clipPath id="clip0_6_193">
<rect width="15" height="15" fill="white"/>
</clipPath>
</defs>
</svg>
