<?xml version="1.0" standalone="no"?>
<!DOCTYPE svg PUBLIC "-//W3C//DTD SVG 20010904//EN"
 "http://www.w3.org/TR/2001/REC-SVG-20010904/DTD/svg10.dtd">
<svg version="1.0" xmlns="http://www.w3.org/2000/svg"
 width="656.000000pt" height="656.000000pt" viewBox="0 0 656.000000 656.000000"
 preserveAspectRatio="xMidYMid meet">
<metadata>
Created by potrace 1.14, written by Peter Selinger 2001-2017
</metadata>
<g transform="translate(0.000000,656.000000) scale(0.100000,-0.100000)"
fill="#000000" stroke="none">
<path d="M3255 6453 c-11 -38 -20 -70 -21 -73 0 -3 -3 -12 -7 -20 -3 -8 -14
-43 -24 -77 l-17 -63 -148 0 c-92 0 -148 -4 -148 -10 0 -5 4 -10 9 -10 5 0 48
-32 97 -71 49 -38 99 -78 110 -87 l22 -17 -25 -75 c-13 -41 -26 -84 -28 -95
-1 -11 -12 -46 -23 -77 -10 -32 -16 -58 -13 -58 4 0 27 17 53 38 25 20 69 55
98 77 29 22 58 46 66 53 16 16 47 8 72 -17 33 -34 192 -153 192 -144 0 8 -24
96 -35 131 -3 7 -5 16 -7 20 -1 4 -12 39 -24 78 l-22 71 70 53 c39 30 75 59
82 64 6 6 28 24 49 40 21 15 36 30 33 33 -2 3 -69 4 -148 4 l-143 -2 -12 38
c-6 21 -26 89 -44 151 -18 61 -36 112 -39 112 -3 0 -14 -30 -25 -67z"/>
<path d="M1694 6170 c-4 -14 -8 -27 -9 -30 -1 -3 -14 -45 -29 -95 -16 -49 -29
-95 -30 -102 -1 -7 -5 -16 -9 -19 -4 -4 -7 -15 -7 -25 0 -13 -10 -18 -46 -21
-25 -2 -48 0 -51 5 -2 4 -9 4 -15 1 -6 -4 -50 -7 -99 -6 -49 0 -89 -3 -89 -7
0 -3 11 -13 24 -21 13 -8 40 -28 61 -45 21 -16 63 -50 95 -75 l57 -45 -42
-138 c-23 -75 -40 -137 -38 -137 2 0 -2 -10 -8 -22 -7 -13 23 6 77 47 49 38
91 73 92 77 2 4 9 8 15 8 7 0 18 9 25 20 7 11 17 20 24 20 10 0 100 -66 227
-168 19 -15 32 -22 29 -17 -6 12 -57 176 -63 202 -2 10 -8 30 -14 46 -6 15 -8
27 -5 27 4 0 1 6 -5 14 -14 16 -6 24 136 134 l102 80 -42 1 c-42 1 -135 0
-146 -1 -3 0 -31 0 -62 1 l-56 1 -28 93 c-15 50 -35 121 -45 157 -15 57 -18
61 -26 40z"/>
<path d="M4746 6168 c-6 -17 -43 -147 -65 -223 -19 -70 -4 -64 -199 -66 l-123
-1 38 -33 c21 -19 41 -34 45 -35 3 0 26 -18 50 -40 23 -22 48 -40 53 -40 6 0
20 -11 32 -24 21 -22 22 -24 7 -77 -9 -30 -19 -67 -24 -84 -4 -16 -17 -59 -29
-95 -26 -81 -26 -89 -1 -64 10 10 25 24 32 29 146 114 188 145 195 145 4 0 20
-11 35 -25 15 -14 30 -25 33 -25 3 0 17 -11 31 -25 14 -14 28 -25 32 -25 4 0
27 -18 52 -40 25 -22 48 -40 52 -40 4 0 -2 28 -12 63 -10 34 -30 102 -45 151
l-26 89 24 21 c14 12 65 53 115 91 50 39 90 75 88 80 -1 6 -16 9 -32 7 -16 -1
-47 -2 -69 -2 -109 0 -138 -1 -145 -5 -24 -15 -43 16 -80 135 -22 70 -40 134
-40 143 0 21 -19 32 -24 15z"/>
<path d="M532 5253 c-6 -10 -11 -22 -11 -28 -1 -5 -7 -28 -13 -50 -6 -22 -13
-44 -14 -50 -20 -75 -39 -132 -47 -142 -7 -9 -50 -13 -154 -13 -168 0 -167 9
-13 -111 52 -40 98 -77 101 -82 4 -5 -2 -37 -13 -70 -11 -34 -22 -73 -24 -86
-3 -13 -9 -32 -14 -41 -5 -9 -11 -28 -14 -41 -3 -13 -8 -34 -12 -46 -7 -26 7
-30 26 -8 7 9 49 43 94 77 45 34 87 68 94 75 7 7 16 13 19 13 7 0 59 -37 123
-88 30 -24 64 -50 75 -59 11 -9 28 -22 37 -31 16 -13 16 -9 -1 51 -11 36 -24
80 -30 99 -49 149 -50 152 -27 168 12 8 26 19 32 25 6 5 26 21 44 35 18 14 60
46 93 73 l60 47 -157 0 c-131 0 -156 2 -157 15 -2 17 -3 24 -11 45 -4 8 -9 24
-11 35 -3 11 -15 52 -27 90 -11 39 -23 78 -25 89 -6 28 -12 30 -23 9z"/>
<path d="M6010 5254 c0 -12 -3 -24 -7 -28 -4 -3 -8 -12 -9 -19 -1 -7 -10 -39
-20 -72 -10 -33 -18 -62 -19 -65 0 -3 -3 -10 -7 -15 -3 -6 -9 -27 -13 -47 l-7
-37 -152 -3 -151 -3 55 -43 c30 -24 64 -51 75 -60 11 -10 41 -34 67 -54 l46
-38 -18 -47 c-10 -27 -19 -52 -20 -58 -2 -5 -4 -14 -6 -20 -39 -131 -51 -185
-35 -172 46 40 224 177 230 177 4 0 34 -21 67 -48 32 -26 87 -69 121 -95 60
-46 62 -47 52 -20 -6 15 -12 35 -14 43 -2 8 -16 53 -30 100 -14 47 -28 93 -30
103 -2 9 -6 21 -9 25 -7 12 3 23 85 87 42 33 93 74 114 90 l39 30 -155 5
c-128 4 -154 8 -155 20 0 8 -3 22 -6 30 -4 8 -16 51 -28 95 -12 44 -25 87 -28
95 -3 8 -6 21 -8 29 -1 7 -7 18 -13 24 -8 8 -11 5 -11 -9z"/>
<path d="M3717 4774 c-1 -2 -25 -6 -52 -10 -77 -10 -241 -67 -355 -123 -57
-28 -111 -51 -121 -51 -9 0 -46 14 -80 32 -35 18 -66 33 -69 33 -3 1 -18 7
-35 14 -93 39 -310 59 -410 38 -16 -4 -45 -9 -63 -12 -183 -30 -377 -212 -437
-409 -48 -161 -53 -258 -20 -406 21 -91 20 -89 28 -96 4 -4 7 -16 7 -26 0 -10
4 -26 10 -36 5 -9 24 -48 41 -87 18 -38 44 -88 58 -110 45 -73 108 -199 130
-261 16 -47 22 -91 25 -195 5 -147 11 -196 35 -300 51 -223 185 -504 285 -600
137 -131 233 -89 230 101 -1 47 -3 139 -4 205 -3 109 1 172 16 275 9 55 52
179 85 241 77 144 211 214 350 184 37 -8 48 -15 103 -71 56 -56 104 -159 121
-264 3 -19 9 -44 12 -55 4 -11 7 -105 8 -210 2 -188 8 -253 26 -287 5 -10 7
-18 3 -18 -3 0 -1 -7 6 -15 7 -8 9 -15 6 -15 -15 0 57 -91 82 -104 35 -18 128
-14 167 6 38 20 81 63 109 108 23 37 66 133 71 160 2 8 4 15 5 15 1 0 4 11 7
25 7 39 11 55 13 55 4 0 25 126 35 215 17 153 26 542 13 563 -4 6 2 26 13 43
95 154 187 402 207 559 13 97 6 306 -13 380 -9 39 -20 75 -23 80 -4 6 -7 15
-8 21 -12 77 -167 289 -243 332 -111 63 -151 74 -274 77 -53 1 -98 0 -100 -1z"/>
<path d="M494 3725 c-65 -27 -71 -73 -30 -243 5 -21 137 -220 250 -377 55 -75
73 -93 151 -142 27 -18 55 -36 60 -41 26 -21 335 -185 335 -176 0 5 -23 33
-148 183 -21 24 -41 51 -46 60 -5 9 -16 22 -24 30 -69 69 -256 347 -291 431
-87 209 -179 308 -257 275z"/>
<path d="M5994 3720 c-27 -11 -104 -90 -104 -106 0 -7 -6 -19 -13 -26 -12 -12
-57 -102 -57 -113 0 -14 -75 -155 -82 -155 -4 0 -8 -6 -8 -12 0 -7 -14 -29
-30 -48 -16 -19 -30 -38 -30 -42 0 -8 -8 -19 -50 -65 -11 -13 -20 -26 -20 -29
0 -3 -6 -11 -12 -19 -18 -18 -39 -44 -73 -90 -34 -46 -159 -198 -192 -235 -13
-14 -23 -28 -23 -32 0 -13 264 128 363 194 32 21 61 38 64 38 14 0 104 105
163 189 36 51 71 99 78 106 6 8 12 18 12 22 0 5 8 18 18 29 36 40 101 155 108
191 4 21 9 47 11 58 3 11 5 40 5 64 0 72 -59 109 -128 81z"/>
<path d="M872 3656 c-21 -23 -21 -47 1 -127 9 -30 16 -61 16 -69 0 -8 3 -58 6
-109 l6 -95 71 -99 c90 -126 205 -265 284 -343 73 -72 105 -94 205 -148 30
-15 52 -26 49 -23 -3 3 -21 24 -40 47 -19 23 -45 54 -58 69 -35 40 -142 198
-142 209 0 6 -3 12 -7 14 -23 10 -97 224 -107 308 -1 3 -7 23 -13 45 -7 22
-26 86 -43 142 -18 61 -41 114 -56 133 -52 61 -138 85 -172 46z"/>
<path d="M5605 3672 c-45 -9 -122 -90 -132 -137 -4 -23 -13 -53 -33 -120 -11
-38 -22 -79 -25 -90 -21 -96 -69 -253 -91 -297 -47 -93 -187 -296 -233 -338
-4 -3 -15 -15 -25 -28 -20 -23 -20 -23 0 -16 10 4 26 13 34 19 8 7 31 20 51
29 20 9 46 26 57 36 12 11 24 20 26 20 12 0 137 131 205 215 40 50 80 99 89
110 30 37 99 140 116 172 10 21 18 68 21 130 2 54 13 131 24 171 10 40 17 81
14 92 -7 25 -55 41 -98 32z"/>
<path d="M146 3589 c-50 -39 -35 -86 97 -303 37 -59 67 -110 67 -112 0 -2 17
-32 38 -66 21 -35 61 -106 88 -158 53 -101 103 -158 298 -335 211 -192 221
-204 426 -530 38 -60 81 -123 95 -140 47 -55 152 -159 236 -235 71 -64 123
-117 189 -189 82 -91 166 -260 178 -358 7 -64 6 -87 -13 -203 -4 -25 -8 -54
-10 -65 -2 -11 -11 -49 -20 -85 -9 -36 -18 -72 -20 -80 -30 -134 -162 -541
-214 -663 -12 -27 -19 -53 -16 -58 3 -5 227 -8 513 -6 l507 2 2 265 c3 512 16
831 39 925 19 79 20 80 45 155 18 53 22 92 24 209 4 214 -28 321 -152 509 -62
94 -234 273 -338 353 -38 29 -87 69 -109 89 -47 44 -186 213 -186 228 0 6 -4
12 -8 14 -5 2 -31 37 -58 78 -27 41 -52 79 -57 85 -4 5 -31 42 -59 80 -28 39
-61 78 -72 88 -12 10 -32 28 -46 41 -33 29 -98 55 -131 51 -70 -8 -109 -76
-87 -150 5 -16 11 -37 13 -45 4 -19 48 -113 56 -120 3 -3 13 -21 22 -40 10
-19 33 -62 52 -95 19 -33 38 -67 42 -75 6 -13 44 -77 80 -135 31 -48 74 -149
88 -202 20 -78 19 -83 -9 -32 -13 24 -33 60 -45 79 -11 19 -24 42 -28 50 -12
24 -36 53 -99 117 -56 56 -152 116 -223 138 -13 4 -40 14 -60 23 -20 9 -38 16
-41 16 -30 5 -332 167 -358 193 -7 7 -17 13 -22 13 -8 0 -46 31 -99 80 -15 14
-38 41 -51 60 -13 19 -27 37 -30 40 -9 8 -104 162 -112 182 -4 10 -12 18 -18
18 -5 0 -10 5 -10 10 0 19 -100 153 -165 220 -81 85 -173 113 -229 69z"/>
<path d="M6275 3592 c-39 -18 -109 -85 -157 -147 -12 -16 -25 -32 -28 -35 -4
-3 -24 -32 -45 -65 -22 -33 -42 -62 -45 -65 -4 -3 -10 -12 -14 -20 -28 -59
-146 -228 -188 -270 -88 -87 -302 -211 -518 -300 -191 -78 -210 -89 -285 -166
-84 -86 -82 -83 -151 -202 -19 -35 -38 -61 -41 -58 -6 6 23 95 50 156 12 25
64 119 117 210 156 268 210 385 205 447 -2 34 -48 92 -77 98 -29 7 -108 -13
-108 -27 0 -4 -6 -8 -12 -8 -16 0 -74 -55 -121 -112 -47 -58 -177 -247 -177
-258 0 -4 -3 -10 -8 -12 -4 -1 -31 -35 -60 -75 -81 -110 -127 -157 -252 -257
-135 -109 -241 -215 -310 -311 -27 -39 -54 -75 -59 -81 -31 -38 -101 -207
-116 -284 -2 -8 -4 -15 -5 -15 -5 0 -11 -81 -11 -155 -1 -104 4 -133 37 -246
57 -193 58 -197 70 -614 4 -135 7 -351 8 -480 l1 -235 513 -1 c281 -1 512 2
512 6 0 7 -21 62 -40 105 -30 69 -122 345 -161 490 -35 126 -31 111 -59 234
-11 52 -23 97 -24 100 -2 3 -7 35 -11 71 -3 36 -8 78 -10 95 -2 16 1 52 6 80
11 52 84 213 116 253 108 138 126 157 257 276 85 77 177 168 214 210 33 39
122 171 171 255 114 194 173 264 377 446 178 159 224 212 303 356 41 74 112
196 158 272 45 75 83 141 83 146 0 5 3 11 8 13 14 6 43 72 48 112 5 33 2 45
-15 60 -30 27 -98 31 -146 8z"/>
</g>
</svg>
